<svg width="112" height="16" viewBox="0 0 112 16" fill="none" xmlns="http://www.w3.org/2000/svg">
<path d="M52 14C53.1 14 54 13.1 54 12V2C54 0.9 53.1 0 52 0H36C34.9 0 34 0.9 34 2V12C34 13.1 34.9 14 36 14H32V16H56V14H52ZM36 2H52V12H36V2Z" fill="#377DFF"/>
<path d="M0.758523 5.27273H3.03409L5.4375 11.1364H5.53977L7.94318 5.27273H10.2188V14H8.42898V8.3196H8.35653L6.09801 13.9574H4.87926L2.62074 8.2983H2.5483V14H0.758523V5.27273ZM14.6623 14.1278C14.0004 14.1278 13.4279 13.9872 12.945 13.706C12.4648 13.4219 12.0941 13.027 11.8327 12.5213C11.5714 12.0128 11.4407 11.4233 11.4407 10.7528C11.4407 10.0767 11.5714 9.4858 11.8327 8.98011C12.0941 8.47159 12.4648 8.0767 12.945 7.79545C13.4279 7.51136 14.0004 7.36932 14.6623 7.36932C15.3242 7.36932 15.8952 7.51136 16.3754 7.79545C16.8583 8.0767 17.2305 8.47159 17.4918 8.98011C17.7532 9.4858 17.8839 10.0767 17.8839 10.7528C17.8839 11.4233 17.7532 12.0128 17.4918 12.5213C17.2305 13.027 16.8583 13.4219 16.3754 13.706C15.8952 13.9872 15.3242 14.1278 14.6623 14.1278ZM14.6708 12.7216C14.9719 12.7216 15.2234 12.6364 15.4251 12.4659C15.6268 12.2926 15.7788 12.0568 15.881 11.7585C15.9862 11.4602 16.0387 11.1207 16.0387 10.7401C16.0387 10.3594 15.9862 10.0199 15.881 9.72159C15.7788 9.4233 15.6268 9.1875 15.4251 9.0142C15.2234 8.84091 14.9719 8.75426 14.6708 8.75426C14.3668 8.75426 14.1112 8.84091 13.9038 9.0142C13.6992 9.1875 13.5444 9.4233 13.4393 9.72159C13.337 10.0199 13.2859 10.3594 13.2859 10.7401C13.2859 11.1207 13.337 11.4602 13.4393 11.7585C13.5444 12.0568 13.6992 12.2926 13.9038 12.4659C14.1112 12.6364 14.3668 12.7216 14.6708 12.7216ZM24.9556 7.45455L22.6673 14H20.6218L18.3335 7.45455H20.2511L21.6104 12.1378H21.6786L23.0337 7.45455H24.9556ZM28.6566 14.1278C27.9833 14.1278 27.4038 13.9915 26.918 13.7188C26.435 13.4432 26.0629 13.054 25.8015 12.5511C25.5401 12.0455 25.4094 11.4474 25.4094 10.7571C25.4094 10.0838 25.5401 9.4929 25.8015 8.98438C26.0629 8.47585 26.4308 8.07955 26.9052 7.79545C27.3825 7.51136 27.9421 7.36932 28.5842 7.36932C29.016 7.36932 29.418 7.43892 29.7901 7.57812C30.1651 7.71449 30.4918 7.92045 30.7702 8.19602C31.0515 8.47159 31.2702 8.81818 31.4265 9.2358C31.5827 9.65057 31.6609 10.1364 31.6609 10.6932V11.1918H26.1339V10.0668H29.9521C29.9521 9.8054 29.8952 9.57386 29.7816 9.37216C29.668 9.17045 29.5103 9.01278 29.3086 8.89915C29.1097 8.78267 28.8782 8.72443 28.614 8.72443C28.3384 8.72443 28.0941 8.78835 27.881 8.91619C27.6708 9.04119 27.506 9.21023 27.3867 9.4233C27.2674 9.63352 27.2063 9.8679 27.2035 10.1264V11.196C27.2035 11.5199 27.2631 11.7997 27.3825 12.0355C27.5046 12.2713 27.6765 12.4531 27.8981 12.581C28.1197 12.7088 28.3825 12.7727 28.6864 12.7727C28.8881 12.7727 29.0728 12.7443 29.2404 12.6875C29.408 12.6307 29.5515 12.5455 29.6708 12.4318C29.7901 12.3182 29.881 12.179 29.9435 12.0142L31.6225 12.125C31.5373 12.5284 31.3626 12.8807 31.0984 13.1818C30.837 13.4801 30.4989 13.7131 30.0842 13.8807C29.6722 14.0455 29.1964 14.1278 28.6566 14.1278Z" fill="#377DFF"/>
<path d="M61.4929 7.78267C61.4588 7.43892 61.3125 7.17187 61.054 6.98153C60.7955 6.79119 60.4446 6.69602 60.0014 6.69602C59.7003 6.69602 59.446 6.73864 59.2386 6.82386C59.0313 6.90625 58.8722 7.02131 58.7614 7.16903C58.6534 7.31676 58.5994 7.48438 58.5994 7.67188C58.5938 7.82812 58.6264 7.96449 58.6974 8.08097C58.7713 8.19744 58.8722 8.2983 59 8.38352C59.1278 8.46591 59.2756 8.53835 59.4432 8.60085C59.6108 8.66051 59.7898 8.71165 59.9801 8.75426L60.7642 8.94176C61.1449 9.02699 61.4943 9.14062 61.8125 9.28267C62.1307 9.42472 62.4063 9.59943 62.6392 9.80682C62.8722 10.0142 63.0526 10.2585 63.1804 10.5398C63.3111 10.821 63.3778 11.1435 63.3807 11.5071C63.3778 12.0412 63.2415 12.5043 62.9716 12.8963C62.7045 13.2855 62.3182 13.5881 61.8125 13.804C61.3097 14.017 60.7031 14.1236 59.9929 14.1236C59.2884 14.1236 58.6747 14.0156 58.152 13.7997C57.6321 13.5838 57.2259 13.2642 56.9332 12.8409C56.6435 12.4148 56.4915 11.8878 56.4773 11.2599H58.2628C58.2827 11.5526 58.3665 11.7969 58.5142 11.9929C58.6648 12.1861 58.8651 12.3324 59.1151 12.4318C59.3679 12.5284 59.6534 12.5767 59.9716 12.5767C60.2841 12.5767 60.5554 12.5312 60.7855 12.4403C61.0185 12.3494 61.1989 12.223 61.3267 12.0611C61.4545 11.8991 61.5185 11.7131 61.5185 11.5028C61.5185 11.3068 61.4602 11.142 61.3438 11.0085C61.2301 10.875 61.0625 10.7614 60.8409 10.6676C60.6222 10.5739 60.3537 10.4886 60.0355 10.4119L59.0852 10.1733C58.3494 9.99432 57.7685 9.71449 57.3423 9.33381C56.9162 8.95312 56.7045 8.44034 56.7074 7.79545C56.7045 7.26705 56.8452 6.8054 57.1293 6.41051C57.4162 6.01562 57.8097 5.70739 58.3097 5.4858C58.8097 5.2642 59.3778 5.15341 60.0142 5.15341C60.6619 5.15341 61.2273 5.2642 61.7102 5.4858C62.196 5.70739 62.5739 6.01562 62.8438 6.41051C63.1136 6.8054 63.2528 7.26278 63.2614 7.78267H61.4929ZM67.5451 14.1278C66.8832 14.1278 66.3107 13.9872 65.8278 13.706C65.3477 13.4219 64.9769 13.027 64.7156 12.5213C64.4542 12.0128 64.3235 11.4233 64.3235 10.7528C64.3235 10.0767 64.4542 9.4858 64.7156 8.98011C64.9769 8.47159 65.3477 8.0767 65.8278 7.79545C66.3107 7.51136 66.8832 7.36932 67.5451 7.36932C68.207 7.36932 68.7781 7.51136 69.2582 7.79545C69.7411 8.0767 70.1133 8.47159 70.3746 8.98011C70.636 9.4858 70.7667 10.0767 70.7667 10.7528C70.7667 11.4233 70.636 12.0128 70.3746 12.5213C70.1133 13.027 69.7411 13.4219 69.2582 13.706C68.7781 13.9872 68.207 14.1278 67.5451 14.1278ZM67.5536 12.7216C67.8548 12.7216 68.1062 12.6364 68.3079 12.4659C68.5096 12.2926 68.6616 12.0568 68.7638 11.7585C68.869 11.4602 68.9215 11.1207 68.9215 10.7401C68.9215 10.3594 68.869 10.0199 68.7638 9.72159C68.6616 9.4233 68.5096 9.1875 68.3079 9.0142C68.1062 8.84091 67.8548 8.75426 67.5536 8.75426C67.2496 8.75426 66.994 8.84091 66.7866 9.0142C66.582 9.1875 66.4272 9.4233 66.3221 9.72159C66.2198 10.0199 66.1687 10.3594 66.1687 10.7401C66.1687 11.1207 66.2198 11.4602 66.3221 11.7585C66.4272 12.0568 66.582 12.2926 66.7866 12.4659C66.994 12.6364 67.2496 12.7216 67.5536 12.7216ZM75.467 7.45455V8.81818H71.4272V7.45455H75.467ZM72.3519 14V6.98153C72.3519 6.5071 72.4442 6.11364 72.6289 5.80114C72.8164 5.48864 73.0721 5.25426 73.396 5.09801C73.7198 4.94176 74.0877 4.86364 74.4996 4.86364C74.7781 4.86364 75.0323 4.88494 75.2624 4.92756C75.4954 4.97017 75.6687 5.00852 75.7823 5.04261L75.4585 6.40625C75.3874 6.38352 75.2994 6.36222 75.1942 6.34233C75.092 6.32244 74.9869 6.3125 74.8789 6.3125C74.6119 6.3125 74.4258 6.375 74.3207 6.5C74.2156 6.62216 74.163 6.79403 74.163 7.01562V14H72.3519ZM80.0575 7.45455V8.81818H76.1158V7.45455H80.0575ZM77.0107 5.88636H78.826V11.9886C78.826 12.1562 78.8516 12.2869 78.9027 12.3807C78.9538 12.4716 79.0249 12.5355 79.1158 12.5724C79.2095 12.6094 79.3175 12.6278 79.4396 12.6278C79.5249 12.6278 79.6101 12.6207 79.6953 12.6065C79.7805 12.5895 79.8459 12.5767 79.8913 12.5682L80.1768 13.919C80.0859 13.9474 79.9581 13.9801 79.7933 14.017C79.6286 14.0568 79.4283 14.081 79.1925 14.0895C78.755 14.1065 78.3714 14.0483 78.0419 13.9148C77.7152 13.7812 77.4609 13.5739 77.2791 13.2926C77.0973 13.0114 77.0078 12.6562 77.0107 12.2273V5.88636ZM82.5312 14L80.75 7.45455H82.5866L83.6009 11.8523H83.6605L84.7173 7.45455H86.5199L87.5938 11.8267H87.6491L88.6463 7.45455H90.4787L88.7017 14H86.7798L85.6548 9.88352H85.5739L84.4489 14H82.5312ZM93.3136 14.1236C92.896 14.1236 92.5238 14.0511 92.1971 13.9062C91.8704 13.7585 91.6119 13.5412 91.4215 13.2543C91.234 12.9645 91.1403 12.6037 91.1403 12.1719C91.1403 11.8082 91.207 11.5028 91.3406 11.2557C91.4741 11.0085 91.6559 10.8097 91.886 10.6591C92.1161 10.5085 92.3775 10.3949 92.6701 10.3182C92.9656 10.2415 93.2752 10.1875 93.5991 10.1562C93.9798 10.1165 94.2866 10.0795 94.5195 10.0455C94.7525 10.0085 94.9215 9.95455 95.0266 9.88352C95.1317 9.8125 95.1843 9.70739 95.1843 9.56818V9.54261C95.1843 9.27273 95.0991 9.06392 94.9286 8.91619C94.761 8.76847 94.5224 8.6946 94.2127 8.6946C93.886 8.6946 93.6261 8.76705 93.4329 8.91193C93.2397 9.05398 93.1119 9.23295 93.0494 9.44886L91.3704 9.3125C91.4556 8.91477 91.6232 8.57102 91.8732 8.28125C92.1232 7.98864 92.4457 7.7642 92.8406 7.60795C93.2383 7.44886 93.6985 7.36932 94.2212 7.36932C94.5849 7.36932 94.9329 7.41193 95.2653 7.49716C95.6005 7.58239 95.8974 7.71449 96.1559 7.89347C96.4173 8.07244 96.6232 8.30256 96.7738 8.58381C96.9244 8.86222 96.9996 9.19602 96.9996 9.58523V14H95.2781V13.0923H95.2269C95.1218 13.2969 94.9812 13.4773 94.805 13.6335C94.6289 13.7869 94.4173 13.9077 94.1701 13.9957C93.9229 14.081 93.6374 14.1236 93.3136 14.1236ZM93.8335 12.8707C94.1005 12.8707 94.3363 12.8182 94.5408 12.7131C94.7454 12.6051 94.9059 12.4602 95.0224 12.2784C95.1388 12.0966 95.1971 11.8906 95.1971 11.6605V10.9659C95.1403 11.0028 95.0621 11.0369 94.9627 11.0682C94.8661 11.0966 94.7567 11.1236 94.6346 11.1491C94.5124 11.1719 94.3903 11.1932 94.2681 11.2131C94.146 11.2301 94.0352 11.2457 93.9357 11.2599C93.7227 11.2912 93.5366 11.3409 93.3775 11.4091C93.2184 11.4773 93.0948 11.5696 93.0067 11.6861C92.9187 11.7997 92.8746 11.9418 92.8746 12.1122C92.8746 12.3594 92.9641 12.5483 93.1431 12.679C93.3249 12.8068 93.555 12.8707 93.8335 12.8707ZM98.408 14V7.45455H100.168V8.59659H100.236C100.355 8.19034 100.556 7.88352 100.837 7.67614C101.118 7.46591 101.442 7.3608 101.809 7.3608C101.9 7.3608 101.998 7.36648 102.103 7.37784C102.208 7.3892 102.3 7.40483 102.38 7.42472V9.03551C102.294 9.00994 102.176 8.98722 102.026 8.96733C101.875 8.94744 101.738 8.9375 101.613 8.9375C101.346 8.9375 101.107 8.99574 100.897 9.11222C100.689 9.22585 100.525 9.38494 100.402 9.58949C100.283 9.79403 100.223 10.0298 100.223 10.2969V14H98.408ZM105.996 14.1278C105.323 14.1278 104.744 13.9915 104.258 13.7188C103.775 13.4432 103.403 13.054 103.141 12.5511C102.88 12.0455 102.749 11.4474 102.749 10.7571C102.749 10.0838 102.88 9.4929 103.141 8.98438C103.403 8.47585 103.771 8.07955 104.245 7.79545C104.722 7.51136 105.282 7.36932 105.924 7.36932C106.356 7.36932 106.758 7.43892 107.13 7.57812C107.505 7.71449 107.832 7.92045 108.11 8.19602C108.391 8.47159 108.61 8.81818 108.766 9.2358C108.923 9.65057 109.001 10.1364 109.001 10.6932V11.1918H103.474V10.0668H107.292C107.292 9.8054 107.235 9.57386 107.121 9.37216C107.008 9.17045 106.85 9.01278 106.648 8.89915C106.45 8.78267 106.218 8.72443 105.954 8.72443C105.678 8.72443 105.434 8.78835 105.221 8.91619C105.011 9.04119 104.846 9.21023 104.727 9.4233C104.607 9.63352 104.546 9.8679 104.543 10.1264V11.196C104.543 11.5199 104.603 11.7997 104.722 12.0355C104.844 12.2713 105.016 12.4531 105.238 12.581C105.46 12.7088 105.722 12.7727 106.026 12.7727C106.228 12.7727 106.413 12.7443 106.58 12.6875C106.748 12.6307 106.891 12.5455 107.011 12.4318C107.13 12.3182 107.221 12.179 107.283 12.0142L108.962 12.125C108.877 12.5284 108.702 12.8807 108.438 13.1818C108.177 13.4801 107.839 13.7131 107.424 13.8807C107.012 14.0455 106.536 14.1278 105.996 14.1278Z" fill="#377DFF"/>
</svg>
