<svg width="24" height="24" viewBox="0 0 24 24" fill="none" xmlns="http://www.w3.org/2000/svg">
<path fill-rule="evenodd" clip-rule="evenodd" d="M11.9998 2.23517e-06C6.11586 0.000651866 1.10035 4.26733 0.156491 10.075C-0.787366 15.8827 2.61888 21.5181 8.19977 23.382C8.79976 23.495 9.01976 23.124 9.01976 22.805C9.01976 22.52 9.00976 21.765 9.00476 20.765C5.66676 21.489 4.96276 19.155 4.96276 19.155C4.7425 18.4303 4.27089 17.808 3.63276 17.4C2.54576 16.656 3.71676 16.671 3.71676 16.671C4.48758 16.7767 5.16616 17.233 5.55476 17.907C5.88299 18.5058 6.43709 18.9484 7.0936 19.1363C7.75011 19.3241 8.45448 19.2416 9.04976 18.907C9.10446 18.3002 9.37396 17.7328 9.80976 17.307C7.14476 17.007 4.34376 15.975 4.34376 11.377C4.3236 10.1823 4.76612 9.02599 5.57877 8.14999C5.20356 7.11729 5.24117 5.97966 5.68376 4.974C5.68376 4.974 6.68876 4.652 8.98376 6.204C10.9473 5.66402 13.0202 5.66402 14.9838 6.204C17.2638 4.652 18.2688 4.974 18.2688 4.974C18.7045 5.98041 18.7473 7.11358 18.3888 8.15C19.1963 9.02602 19.6366 10.1787 19.6188 11.37C19.6188 15.98 16.8138 16.995 14.1438 17.29C14.7197 17.8796 15.0147 18.6881 14.9538 19.51C14.9538 21.116 14.9388 22.41 14.9388 22.796C14.9388 23.111 15.1488 23.486 15.7638 23.366C21.3532 21.521 24.7756 15.8901 23.8395 10.0789C22.9034 4.26772 17.8859 -0.00356737 11.9998 2.23517e-06Z" fill="#377DFF"/>
</svg>
